<?xml version="1.0" standalone="no"?>
<!DOCTYPE svg PUBLIC "-//W3C//DTD SVG 20010904//EN"
 "http://www.w3.org/TR/2001/REC-SVG-20010904/DTD/svg10.dtd">
<svg version="1.0" xmlns="http://www.w3.org/2000/svg"
 width="128.000000pt" height="128.000000pt" viewBox="0 0 128.000000 128.000000"
 preserveAspectRatio="xMidYMid meet">

<g transform="translate(0.000000,128.000000) scale(0.100000,-0.100000)"
fill="#000000" stroke="none">
<path d="M75 1271 c-11 -5 -31 -21 -45 -36 l-25 -27 0 -280 c0 -257 2 -282 18
-292 12 -8 22 -8 35 0 15 10 17 36 20 274 1 174 6 268 13 277 16 18 1079 19
1097 1 18 -18 17 -1081 -1 -1097 -9 -7 -103 -12 -277 -13 -238 -3 -264 -5
-274 -20 -8 -13 -8 -23 0 -35 10 -16 35 -18 292 -18 l282 0 32 33 33 32 0 570
0 570 -33 32 -32 33 -558 2 c-306 1 -566 -2 -577 -6z"/>
<path d="M772 988 c-32 -32 -5 -68 52 -68 l41 0 -133 -133 c-72 -73 -132 -139
-132 -148 0 -19 20 -39 40 -39 8 0 74 59 145 130 l130 131 5 -42 c6 -48 30
-70 57 -53 15 9 19 29 21 109 2 63 -1 102 -9 111 -15 18 -199 20 -217 2z"/>
<path d="M75 551 c-11 -5 -31 -21 -45 -36 l-25 -27 0 -209 0 -209 33 -32 32
-33 210 0 210 0 32 33 33 32 0 210 0 210 -33 32 -32 33 -198 2 c-108 1 -206
-2 -217 -6z m393 -83 c17 -17 17 -359 0 -376 -17 -17 -359 -17 -376 0 -17 17
-17 359 0 376 17 17 359 17 376 0z"/>
</g>
</svg>
