<?xml version="1.0" standalone="no"?>
<!DOCTYPE svg PUBLIC "-//W3C//DTD SVG 20010904//EN"
 "http://www.w3.org/TR/2001/REC-SVG-20010904/DTD/svg10.dtd">
<svg version="1.0" xmlns="http://www.w3.org/2000/svg"
 width="128.000000pt" height="128.000000pt" viewBox="0 0 128.000000 128.000000"
 preserveAspectRatio="xMidYMid meet">

<g transform="translate(0.000000,128.000000) scale(0.100000,-0.100000)"
fill="#000000" stroke="none">
<path d="M95 1266 c-37 -17 -70 -52 -84 -89 -7 -17 -11 -124 -11 -274 0 -230
1 -245 17 -238 10 4 34 13 53 20 l35 13 3 156 3 156 529 0 530 0 0 -384 0
-385 -22 -15 c-18 -13 -52 -16 -160 -16 l-138 0 0 -50 0 -50 159 0 c147 0 160
2 191 23 18 12 43 35 54 50 21 28 21 37 21 512 0 473 0 484 -21 511 -11 15
-33 37 -48 48 -27 21 -40 21 -554 23 -424 2 -533 0 -557 -11z"/>
<path d="M966 860 c-29 -27 -57 -50 -63 -50 -5 0 -18 9 -28 20 -20 23 -45 26
-63 8 -16 -16 -16 -170 0 -186 16 -16 170 -16 186 0 18 18 15 43 -8 63 -28 25
-25 36 21 80 57 56 65 72 43 96 -9 10 -21 19 -26 19 -5 0 -33 -22 -62 -50z"/>
<path d="M65 631 c-11 -5 -29 -19 -40 -31 -19 -21 -20 -36 -20 -281 l0 -259
28 -27 27 -28 340 0 340 0 27 28 28 27 0 260 0 260 -28 27 -27 28 -328 2
c-180 1 -336 -2 -347 -6z m623 -358 l-3 -158 -287 -3 -288 -2 0 160 0 160 290
0 291 0 -3 -157z"/>
</g>
</svg>
