<?xml version="1.0" standalone="no"?>
<!DOCTYPE svg PUBLIC "-//W3C//DTD SVG 20010904//EN"
 "http://www.w3.org/TR/2001/REC-SVG-20010904/DTD/svg10.dtd">
<svg version="1.0" xmlns="http://www.w3.org/2000/svg"
 width="311.000000pt" height="279.000000pt" viewBox="0 0 311.000000 279.000000"
 preserveAspectRatio="xMidYMid meet">

<g transform="translate(0.000000,279.000000) scale(0.100000,-0.100000)"
fill="#000000" stroke="none">
<path d="M353 2735 c-137 -42 -245 -167 -273 -315 -13 -70 -13 -1783 0 -1864
21 -129 107 -242 227 -299 l68 -32 392 -3 c329 -3 397 -1 427 12 91 38 103
175 19 232 -26 18 -56 19 -408 24 -347 5 -383 7 -409 23 -58 38 -56 7 -56 979
0 868 1 894 20 925 10 18 31 40 47 50 26 17 84 18 1133 18 1049 0 1107 -1
1133 -18 16 -10 37 -32 47 -50 19 -31 20 -54 20 -525 0 -544 0 -544 62 -582
61 -37 145 -21 184 37 18 26 19 56 22 521 2 310 -1 515 -8 550 -23 131 -111
245 -230 301 l-55 26 -1160 2 c-944 1 -1168 -1 -1202 -12z"/>
<path d="M554 2340 c-11 -4 -33 -22 -47 -40 -30 -35 -37 -102 -16 -143 6 -12
102 -113 212 -224 177 -178 198 -203 175 -203 -15 0 -46 -7 -68 -16 -94 -38
-114 -148 -39 -220 l30 -29 230 -3 c266 -4 284 1 319 72 18 38 20 61 20 250 0
232 -7 262 -64 297 -94 57 -206 -12 -206 -128 l0 -38 -207 207 c-115 113 -218
211 -230 217 -25 13 -79 13 -109 1z"/>
<path d="M1449 1111 l-39 -39 0 -452 0 -452 39 -39 39 -39 711 0 c776 0 747
-2 787 57 18 26 19 52 19 473 0 421 -1 447 -19 473 -40 59 -11 57 -787 57
l-711 0 -39 -39z m1291 -491 l0 -270 -532 2 -533 3 -3 255 c-1 140 0 260 3
267 3 10 116 13 535 13 l530 0 0 -270z"/>
</g>
</svg>
